<svg width="461" height="541" viewBox="0 0 461 541" fill="none" xmlns="http://www.w3.org/2000/svg">
<path d="M0 504.136C49.79 483.216 95.3093 454.004 134.442 417.857C156.567 397.401 176.47 374.89 195.855 351.995C209.546 335.844 223.092 319.276 232.759 300.602C241.687 283.337 247.119 264.664 251.952 245.979C260.157 214.368 266.853 182.438 272.042 150.188C278.189 111.888 282.098 72.2184 271.64 34.7986C268.081 22.0506 261.875 8.62318 249.51 2.84787C231.776 -5.45031 210.867 5.77729 196.39 18.6534C175.731 37.0319 159.463 59.4314 143.771 81.8811C90.4769 158.118 40.6669 239.908 26.5161 330.698" fill="#194429"/>
<path d="M129.585 343.145C143.137 323.839 155.663 303.893 167.164 283.309C178.664 262.725 189.075 241.633 198.397 220.032C207.722 198.52 215.923 176.601 222.999 154.276C230.076 131.95 235.993 109.365 240.75 86.5201C245.508 63.6119 249.075 40.5144 251.452 17.2275C251.743 14.3315 252.018 11.4299 252.278 8.5228C252.604 4.85267 246.625 4.88608 246.299 8.5228C244.244 31.5758 240.991 54.4895 236.539 77.264C232.096 99.968 226.497 122.431 219.742 144.652C212.988 166.873 205.095 188.797 196.064 210.425C187.119 231.818 177.08 252.747 165.948 273.212C154.816 293.677 142.65 313.604 129.451 332.993C127.788 335.428 126.109 337.856 124.414 340.277C122.262 343.34 127.445 346.203 129.585 343.145Z" fill="#153A23"/>
<path d="M240.256 87.6342C247.276 76.4957 248.515 73.8113 257.42 64.0429C258.472 62.8789 270.372 50.4595 269.174 49.3178C268.081 48.2708 258.624 55.6444 257.542 56.814C248.311 66.9389 242.356 73.1931 235.08 84.7493C233.096 87.9127 238.267 90.7864 240.256 87.6342Z" fill="#153A23"/>
<path d="M222.586 156.425C230.822 141.154 234.166 135.413 244.583 121.489C245.531 120.231 258.577 106.129 257.274 105.4C255.762 104.559 249.131 110.217 247.928 111.281C227.629 129.437 225.657 138.253 217.416 153.529C215.653 156.815 220.812 159.711 222.586 156.425Z" fill="#153A23"/>
<path d="M205.126 203.914C216.022 186.197 227.813 169.029 240.5 152.41C244.06 147.754 243.99 147.71 247.689 143.154C248.678 141.934 255.035 132.751 253.796 131.564C252.761 130.579 242.629 140.219 241.634 141.45C228.234 157.951 221.202 168.16 209.622 185.859C206.318 190.879 203.1 195.939 199.967 201.041C197.99 204.226 203.178 207.106 205.126 203.914Z" fill="#153A23"/>
<path d="M186.101 244.898C201.27 233.76 220.702 216.428 233.067 202.461C252.685 180.289 234.812 191.634 228.827 198.412C216.799 211.984 202.299 223.395 187.532 234.217C186.252 235.152 185.578 236.689 186.468 238.115C187.206 239.324 184.781 242.409 186.072 241.457L186.101 244.898Z" fill="#153A23"/>
<path d="M78.7573 418.13C104.005 412.878 127.328 401.622 148.028 386.992C168.85 372.289 186.939 354.245 202.945 334.825C222.034 311.64 238.197 286.428 254.413 261.367C269.895 237.419 285.238 212.987 304.002 191.227C319.077 173.751 337.869 157.166 361.117 150.745C363.986 149.958 366.899 149.322 369.841 148.84L365.822 146.985C369.696 153.668 363.862 161.009 358.976 165.793C355.405 169.285 351.369 172.309 347.472 175.45L333.56 186.65C315.409 201.271 297.251 215.892 279.085 230.513C268.895 238.722 263.544 243.551 253.348 251.754C251.964 252.868 246.921 258.309 247.922 259.696C248.858 260.982 251.033 261.857 252.575 260.876C276.342 245.69 305.377 240.026 333.455 245.099C332.71 243.06 331.966 241.028 331.221 238.973C307.372 259.246 279.995 275.361 250.335 286.584C242.044 289.714 233.594 292.445 225.017 294.765L229.426 298.358C233.835 275.228 230.648 250.963 220.87 229.427C218.122 223.385 214.836 217.581 211.047 212.079C209.273 209.5 205.626 209.617 204.318 212.552C194.912 233.911 191.474 257.246 194.343 280.263C196.774 299.867 205.19 323.146 228.362 326.772C239.232 328.443 250.126 325.101 260.985 326.371C267.895 327.167 276.229 330.826 278.806 337.214C279.794 339.676 279.318 343.19 277.8 345.429C277.009 346.547 275.998 347.507 274.822 348.252C273.414 349.098 271.889 349.748 270.291 350.185C266.405 351.177 262.375 351.554 258.362 351.299C254.29 351.126 250.219 350.742 246.439 349.628C246.171 349.544 245.921 349.45 245.665 349.35C245.083 349.127 246.101 349.645 245.392 349.188C244.775 348.804 244.17 348.419 243.589 347.996C243.007 347.573 243.589 348.041 243.141 347.645C242.879 347.411 242.623 347.183 242.367 346.938C241.698 346.303 241.059 345.635 240.442 344.95C237.919 342.063 235.565 339.043 233.393 335.905C229.193 330.052 225.058 323.219 218.852 319.086C217.566 318.212 216.134 317.553 214.618 317.137C210.099 315.99 207.772 322.612 212.326 323.781C212.629 323.859 212.908 323.954 213.228 324.048C213.548 324.143 214.287 324.566 213.507 324.143C214.132 324.478 214.734 324.85 215.31 325.257C216.45 326.134 217.501 327.111 218.451 328.175C221.085 331.131 223.525 334.241 225.756 337.487C230.037 343.446 234.259 350.569 240.71 354.646C243.996 356.734 248.073 357.241 251.9 357.77C256.408 358.399 260.978 358.522 265.516 358.138C273.81 357.414 282.563 354.017 285.628 345.997C288.85 337.565 284.087 329.323 276.718 324.667C273.021 322.36 268.897 320.754 264.568 319.938C259.211 318.919 253.831 319.225 248.416 319.638C237.703 320.456 226.425 321.72 217.421 314.909C209.738 309.089 205.789 299.438 203.596 290.572C198.135 268.417 200.2 244.286 207.993 222.894C208.994 220.162 210.085 217.46 211.268 214.791L204.539 215.264C217.51 234.155 224.31 256.319 224.069 278.926C223.984 285.337 223.336 291.728 222.133 298.034C221.72 300.206 224.459 302.189 226.541 301.632C258.224 293.036 288.078 279.167 314.738 260.659C322.124 255.535 329.236 250.059 336.049 244.252C338.672 242.025 336.788 238.683 333.821 238.126C311.202 234.083 287.443 236.929 266.353 245.723C260.397 248.212 257.332 249.621 251.917 253.091C253.267 255.006 251.987 258.482 253.331 260.398C272.226 245.175 291.124 229.952 310.027 214.73L338.37 191.896L352.817 180.262C356.807 177.043 360.96 173.952 364.519 170.304C371.336 163.37 377.786 153.323 372.307 143.855C371.93 143.178 371.337 142.632 370.614 142.299C369.892 141.965 369.077 141.861 368.288 142.001C343.592 146.105 322.834 160.936 306.206 178.201C286.919 198.278 271.617 221.708 256.57 244.754C240.093 270.055 224.162 295.718 205.754 319.755C190.178 340.077 172.654 359.079 152.245 375.046C132.819 390.245 110.618 402.625 86.3649 409.141C83.3579 409.949 80.316 410.661 77.2683 411.302C72.6561 412.237 74.1566 419.082 78.7573 418.13Z" fill="#1F7A36"/>
<path d="M162.005 473.566C169.798 488.314 177.895 502.861 190.202 513.609C205.696 527.142 224.232 538.069 245.851 539.991C267.47 541.912 292.538 533.475 308.468 514.723C311.679 510.942 314.61 506.447 314.802 501.853C315.209 492.156 304.415 488.765 296.132 485.49C287.85 482.215 280.399 471.456 287.803 464.065L335.078 479.102C347.216 482.962 360.041 486.843 373.552 483.663C387.063 480.483 401.068 467.513 400.783 453.896C400.202 425.209 348.437 435.155 341.179 408.596C353.434 403.299 366.188 405.75 377.734 408.874C389.279 411.998 401.214 415.724 413.794 412.694C426.375 409.665 439.467 396.911 438.083 384.464C435.832 364.376 400.981 362.326 405.407 341.403C406.983 333.945 413.422 327.953 417.691 321.231C427.078 306.422 432.749 275.195 412.98 263.004C400.423 255.224 377.001 259.05 365.496 272.416C353.346 286.501 351.7 305.342 343.063 329.011C338.992 340.233 327.156 334.268 322.747 324.879C321.351 321.905 321.532 318.196 321.537 314.665C321.537 298.091 314.017 280.091 297.935 279.874C281.941 279.656 267.703 297.478 263.131 314.074C258.56 330.671 260.083 347.412 256.326 364.097C255.57 367.439 254.488 371.02 251.987 373.615C245.206 380.655 234.667 374.762 232.137 366.592C229.606 358.422 230.857 348.476 226.634 341.313C221.708 332.96 210.122 330.838 199.839 334.252C189.556 337.666 180.541 345.58 173.149 354.284C158.108 372.039 148.366 394.154 146.033 415.852C146.033 415.869 149.436 449.797 162.005 473.566Z" fill="#198C36"/>
<path d="M295.434 102.861C292.747 95.0637 289.118 80.8677 287.937 72.7255C287.722 71.1438 287.937 68.9941 289.577 68.7323C291.078 68.4706 292.073 70.1469 292.596 71.517C295.869 80.1456 299.116 88.789 302.338 97.4474C309.264 92.2008 317.421 88.6492 326.103 87.0997C326.346 87.0605 326.595 87.0852 326.824 87.1711C327.052 87.2571 327.253 87.401 327.403 87.5876C327.553 87.7741 327.647 87.9962 327.675 88.2301C327.703 88.464 327.665 88.7009 327.563 88.9153C325.163 93.9657 321.181 98.1758 316.169 100.962C314.354 101.958 312.249 102.994 311.743 104.932C311.417 106.186 311.917 107.472 312.365 108.681C315.187 116.166 316.959 123.978 317.635 131.91C317.65 132.216 317.568 132.52 317.4 132.782C317.232 133.043 316.985 133.25 316.692 133.375C316.4 133.5 316.074 133.537 315.759 133.483C315.444 133.428 315.153 133.284 314.924 133.068C309.562 128.117 307.817 119.886 303.414 113.799C302.985 113.062 302.32 112.476 301.518 112.128C300.489 111.783 299.349 112.128 298.331 112.518C290.398 115.364 282.254 117.637 273.967 119.318C271.727 119.758 268.342 119.19 268.767 117.09C268.953 116.445 269.348 115.874 269.895 115.458C273.507 112.143 277.761 109.536 282.418 107.784L295.434 102.861Z" fill="#FBC8B8"/>
<path d="M326.789 37.6224C321.526 42.3897 322.823 52.4701 331.838 50.053C345.14 46.472 335.799 29.4579 326.789 37.6224Z" fill="#F7BC28"/>
<path d="M439.63 319.51C434.395 324.283 435.669 334.358 444.678 331.941C457.974 328.36 448.668 311.351 439.63 319.51Z" fill="#F7BC28"/>
<path d="M454.519 344.755C452.042 346.877 452.658 351.355 456.898 350.286C463.162 348.715 458.759 341.13 454.519 344.755Z" fill="#F7BC28"/>
</svg>
