<svg width="350" height="572" viewBox="0 0 350 572" fill="none" xmlns="http://www.w3.org/2000/svg">
<path d="M321.898 396.96C256.564 406.25 187.016 366.519 148.059 297.65C146.262 294.475 144.451 290.916 144.627 287.068C145.09 276.62 157.883 276.213 162.612 267.793C169.443 255.63 155.465 240.982 143.858 236.605C127.925 230.59 110.256 226.241 99.1166 210.43C84.8743 190.185 87.1994 159.493 93.642 134.432C100.085 109.37 109.853 84.4476 107.634 57.899C105.888 37.2148 99.5797 9.22373 114.582 1.40451C123.697 -3.34049 134.034 4.74606 141.413 13.5845C165.21 42.0934 180.42 82.916 209.22 102.52C229.636 116.415 253.901 117.328 274.961 129.531C298.513 143.175 316.076 169.835 329.109 198.166C340.411 222.671 349.123 249.899 349.489 277.862C349.855 305.825 340.8 334.624 322.523 349.672" fill="#194429"/>
<path d="M159.569 571.032C194.929 539.232 225.327 500.152 249.353 455.604C262.923 430.415 274.364 403.665 285.262 376.682C292.978 357.602 300.509 338.199 304.553 317.554C308.295 298.49 308.99 278.77 309.221 259.177C309.62 226.04 308.758 192.933 306.637 159.855C304.122 120.558 299.555 80.4097 284.058 45.6854C278.782 33.8563 271.284 21.9604 260.376 18.9864C244.726 14.7092 230.34 30.4814 221.359 46.4707C208.553 69.3046 199.998 95.0846 191.902 120.82C164.423 208.207 140.778 300.317 147.086 393.379" fill="#198C36"/>
<path d="M231.09 382.714C238.084 360.548 244.148 338 249.283 315.07C254.418 292.139 258.587 268.934 261.789 245.454C265.019 222.063 267.285 198.53 268.588 174.853C269.891 151.176 270.218 127.49 269.57 103.795C268.917 80.0532 267.282 56.3394 264.665 32.787C264.356 29.8576 264.017 26.9263 263.646 23.9932C263.183 20.2785 258.468 21.643 258.917 25.3354C261.748 48.6272 263.603 72.0755 264.475 95.5914C265.34 119.071 265.241 142.562 264.179 166.065C263.113 189.611 261.092 213.071 258.116 236.443C255.158 259.626 251.249 282.594 246.389 305.346C241.528 328.098 235.74 350.544 229.025 372.684C228.182 375.465 227.322 378.249 226.445 381.038C225.328 384.53 229.983 386.206 231.09 382.714Z" fill="#153A23"/>
<path d="M269.403 105.009C272.807 92.4114 273.271 89.482 278.435 77.82C279.042 76.4333 286.063 61.4854 284.891 60.6222C283.84 59.8369 277.763 69.2434 277.147 70.6468C271.793 82.7376 268.282 90.2561 264.753 103.316C263.79 106.864 268.435 108.557 269.403 105.009Z" fill="#153A23"/>
<path d="M268.695 177.058C272.266 160.1 273.789 153.668 279.347 137.573C279.848 136.119 287.453 119.244 286.295 118.815C284.938 118.32 280.765 125.409 280.033 126.724C267.463 149.229 267.601 158.402 264.026 175.36C263.271 178.991 267.912 180.701 268.695 177.058Z" fill="#153A23"/>
<path d="M264.03 227.983C269.23 208.003 275.259 188.349 282.094 169.094C284.011 163.692 283.946 163.653 285.998 158.318C286.549 156.892 289.805 146.377 288.601 145.481C287.587 144.729 281.431 156.541 280.876 157.978C273.465 177.298 269.857 188.976 264.081 209.093C262.448 214.796 260.881 220.524 259.38 226.279C258.445 229.871 263.099 231.57 264.03 227.983Z" fill="#153A23"/>
<path d="M256.87 272.799C266.731 258.397 278.768 236.889 285.864 220.304C297.114 193.972 285.178 209.165 281.733 217.241C274.827 233.392 265.55 247.899 255.962 261.906C255.124 263.12 254.897 264.791 255.874 266.027C256.694 267.058 255.374 270.65 256.212 269.425L256.875 272.799H256.87Z" fill="#153A23"/>
<path d="M210.841 295.533C153.913 310.514 91.9792 295.405 44.3522 254.928C25.117 238.582 7.29911 216.316 3.51043 188.314C3.08432 185.139 2.93611 181.542 4.64518 179.069C6.08099 177.019 8.3968 176.295 10.5598 175.794C61.3039 163.909 111.349 200.472 148.619 243.683C140.09 219.156 135.846 192.781 136.151 166.198C136.244 158.608 138.513 148.75 144.808 148.516C148.703 148.371 151.755 152.314 154.214 155.99C177.931 191.672 196.153 232.164 208.02 275.556" fill="#1F7A36"/>
<path d="M4.30708 179.815C29.3688 172.102 56.0378 177.348 79.5803 189.322C104.026 201.747 125.23 221.451 144.585 243.01C155.771 255.468 166.423 268.628 177.058 281.749C179.401 284.651 183.301 281.075 182.305 277.528C173.917 247.537 165.233 217.653 157.118 187.551C150.792 164.093 147.925 168.727 153.057 189.406C160.569 219.736 167.734 250.11 176.131 280.079L181.388 275.857C162.204 252.138 142.862 228.273 120.561 208.742C98.7553 189.662 73.9483 174.825 47.0709 169.991C32.1061 167.301 16.8773 167.841 2.19043 172.364C0.481358 172.887 -0.375494 175.466 0.157144 177.376C0.768519 179.509 2.59801 180.339 4.30708 179.815Z" fill="#163A24"/>
<path d="M216.403 287.179C192.647 287.128 168.986 283.555 145.956 276.542C122.893 269.545 100.621 259.205 79.6313 245.749C67.8855 238.225 62.7027 238.409 49.6183 226.753C48.2288 225.494 34.5655 212.83 33.3103 214.551C32.2312 216.021 40.0632 224.943 41.5037 226.201C61.1688 243.467 82.5269 257.755 105.096 268.745C127.744 279.778 151.428 287.446 175.622 291.579C189.271 293.881 203.037 295.038 216.82 295.043C220.989 295.043 220.595 287.179 216.403 287.179Z" fill="#194429"/>
<path d="M68.8071 220.849C86.9909 235.157 100.9 255.685 117.277 272.643C120.468 275.946 131.714 276.258 128.513 272.95C111.668 255.546 95.5687 234.722 76.8616 220.003C75.3841 218.839 62.2534 210.981 61.517 212.729C60.637 214.768 67.325 219.685 68.8071 220.849Z" fill="#194429"/>
<path d="M117.356 241.322C131.075 257.183 136.267 270.098 150.449 283.576C153.742 286.7 168.661 287.686 165.349 284.539C151.158 271.067 135.373 252.11 121.969 237.513C109.39 223.812 101.632 222.437 117.356 241.322Z" fill="#194429"/>
<path d="M78.977 202.072C78.6528 196.324 78.7408 186.077 79.2781 180.352C79.3892 179.238 79.8154 177.818 80.7463 177.912C81.5985 177.985 81.8903 179.293 81.9737 180.307C82.5017 186.712 83.0081 193.127 83.4929 199.554C87.9993 197.139 92.9278 196.081 97.8509 196.475C97.9885 196.488 98.1204 196.546 98.2327 196.642C98.3449 196.739 98.4331 196.87 98.4879 197.023C98.5426 197.175 98.5619 197.342 98.5435 197.507C98.5251 197.671 98.4698 197.826 98.3836 197.956C96.3505 200.987 93.5846 203.184 90.4681 204.244C89.3426 204.617 88.055 204.973 87.5039 206.204C87.1426 207 87.2306 207.958 87.2954 208.855C87.7423 214.412 87.571 220.016 86.786 225.518C86.7501 225.729 86.6619 225.923 86.533 226.073C86.4041 226.223 86.2405 226.322 86.0637 226.359C85.8868 226.395 85.705 226.366 85.5421 226.275C85.3793 226.185 85.2429 226.038 85.151 225.852C82.9649 221.597 83.215 215.711 81.7097 210.815C81.5821 210.247 81.3081 209.742 80.9269 209.373C80.3757 209.04 79.7454 208.947 79.1438 209.111C74.4394 209.725 69.7033 209.911 64.9756 209.668C63.6973 209.596 61.9512 208.649 62.4838 207.284C62.6789 206.879 62.9755 206.557 63.3314 206.365C65.7611 204.715 68.4359 203.652 71.2052 203.236L78.977 202.072Z" fill="#FBC8B8"/>
<path d="M304.403 31.0954C305.603 23.4822 308.613 10.1717 310.938 2.93172C311.402 1.53383 312.328 -0.148077 313.537 0.353156C314.621 0.798696 314.644 2.61984 314.463 3.97317C313.327 12.5127 312.17 21.0726 310.994 29.653C317.544 28.3477 324.26 28.9863 330.558 31.5131C330.732 31.588 330.886 31.7183 331.004 31.8901C331.121 32.0618 331.198 32.2687 331.225 32.4886C331.253 32.7086 331.23 32.9334 331.16 33.1391C331.09 33.3449 330.975 33.524 330.827 33.6573C327.326 36.774 323.107 38.5043 318.752 38.6083C317.177 38.6083 315.403 38.5693 314.333 39.9449C313.643 40.8416 313.486 42.1169 313.314 43.2865C312.325 50.7043 310.516 57.9301 307.937 64.7726C307.831 65.0322 307.662 65.2473 307.453 65.3895C307.243 65.5318 307.003 65.5947 306.763 65.5701C306.523 65.5454 306.295 65.4343 306.109 65.2512C305.923 65.0682 305.787 64.8218 305.719 64.5443C304.074 58.1063 306.061 50.5432 305.482 43.5984C305.473 42.8057 305.258 42.0365 304.866 41.3985C304.315 40.6634 303.431 40.4684 302.62 40.3237C296.323 39.2016 290.105 37.5112 284.019 35.2668C282.384 34.6486 280.37 32.6993 281.449 31.14C281.817 30.6913 282.294 30.3932 282.81 30.2879C286.447 29.129 290.238 28.8358 293.968 29.4246L304.403 31.0954Z" fill="#FBC8B8"/>
<path d="M38.9598 321.253C34.9025 325.87 35.8983 335.633 42.855 333.294C53.1187 329.825 45.9119 313.345 38.9598 321.253Z" fill="#F7BC28"/>
<path d="M200.103 169.725C196.449 170.098 193.508 175.617 197.788 177.845C204.156 181.142 206.361 169.096 200.103 169.725Z" fill="#F7BC28"/>
<path d="M213.707 116.138C209.649 120.761 210.65 130.523 217.602 128.179C227.865 124.709 220.659 108.235 213.707 116.138Z" fill="#F7BC28"/>
</svg>
